<svg width="18" height="16" viewBox="0 0 18 16" fill="none" xmlns="http://www.w3.org/2000/svg">
<path d="M7.77316 9.17509C8.13301 9.50009 8.13301 10.0334 7.77316 10.3584C7.43088 10.6834 6.86917 10.6834 6.52689 10.3584C5.70485 9.57674 5.24314 8.51724 5.24314 7.41259C5.24314 6.30795 5.70485 5.24845 6.52689 4.46676L9.6338 1.51676C10.4571 0.736243 11.5729 0.297852 12.7363 0.297852C13.8997 0.297852 15.0156 0.736243 15.8389 1.51676C16.6609 2.29845 17.1226 3.35795 17.1226 4.46259C17.1226 5.56724 16.6609 6.62674 15.8389 7.40843L14.5311 8.65009C14.5399 7.96676 14.4258 7.28343 14.1801 6.63343L14.5926 6.23343C14.8386 6.00233 15.0339 5.7272 15.1673 5.42395C15.3006 5.12071 15.3692 4.79536 15.3692 4.46676C15.3692 4.13816 15.3006 3.81282 15.1673 3.50957C15.0339 3.20632 14.8386 2.93119 14.5926 2.70009C14.3492 2.46648 14.0594 2.28102 13.74 2.15444C13.4207 2.02787 13.078 1.9627 12.7319 1.9627C12.3859 1.9627 12.0432 2.02787 11.7238 2.15444C11.4045 2.28102 11.1147 2.46648 10.8713 2.70009L7.77316 5.64176C7.52712 5.87286 7.3318 6.14799 7.19849 6.45124C7.06518 6.75448 6.99654 7.07982 6.99654 7.40843C6.99654 7.73703 7.06518 8.06237 7.19849 8.36562C7.3318 8.66887 7.52712 8.944 7.77316 9.17509ZM10.2482 5.64176C10.5905 5.31676 11.1522 5.31676 11.4944 5.64176C12.3165 6.42345 12.7782 7.48295 12.7782 8.58759C12.7782 9.69224 12.3165 10.7517 11.4944 11.5334L8.38753 14.4834C7.56426 15.2639 6.44841 15.7023 5.285 15.7023C4.12159 15.7023 3.00574 15.2639 2.18247 14.4834C1.36044 13.7017 0.898727 12.6422 0.898727 11.5376C0.898727 10.4329 1.36044 9.37345 2.18247 8.59176L3.49019 7.35009C3.48141 8.03343 3.5955 8.71676 3.84125 9.37509L3.42875 9.76676C3.18271 9.99786 2.98738 10.273 2.85407 10.5762C2.72077 10.8795 2.65213 11.2048 2.65213 11.5334C2.65213 11.862 2.72077 12.1874 2.85407 12.4906C2.98738 12.7939 3.18271 13.069 3.42875 13.3001C3.67214 13.5337 3.9619 13.7192 4.28128 13.8457C4.60066 13.9723 4.94331 14.0375 5.28939 14.0375C5.63547 14.0375 5.97812 13.9723 6.29749 13.8457C6.61687 13.7192 6.90664 13.5337 7.15003 13.3001L10.2482 10.3584C10.4942 10.1273 10.6895 9.8522 10.8228 9.54895C10.9561 9.24571 11.0248 8.92037 11.0248 8.59176C11.0248 8.26316 10.9561 7.93782 10.8228 7.63457C10.6895 7.33132 10.4942 7.05619 10.2482 6.82509C10.1629 6.74925 10.095 6.65762 10.0485 6.55585C10.0021 6.45408 9.97811 6.34434 9.97811 6.23343C9.97811 6.12251 10.0021 6.01278 10.0485 5.91101C10.095 5.80924 10.1629 5.7176 10.2482 5.64176Z" fill="#582218"/>
</svg>
