<svg width="12" height="12" viewBox="0 0 12 12" fill="none" xmlns="http://www.w3.org/2000/svg">
<path d="M9.86351 5.68852L11.9493 10.781C12.0943 11.1351 11.7306 11.474 11.3705 11.3533L11.3134 11.3305L0.254895 6.08052C0.183581 6.0467 0.122726 5.9959 0.0782772 5.93307C0.0338283 5.87024 0.00730628 5.79754 0.00130151 5.72207C-0.00470326 5.6466 0.0100147 5.57094 0.0440184 5.50248C0.078022 5.43403 0.130148 5.37512 0.195302 5.33152L0.254895 5.29768L11.3134 0.0476812C11.6716 -0.122069 12.0611 0.190598 11.9677 0.542348L11.9493 0.597765L9.86351 5.68852L11.9493 10.781L9.86351 5.68852ZM10.6573 10.0402L9.05378 6.12602H4.98241C4.87106 6.12601 4.76348 6.08772 4.67957 6.01823C4.59565 5.94875 4.54108 5.85276 4.52594 5.74802L4.52164 5.68852C4.52166 5.58271 4.56207 5.48049 4.63538 5.4008C4.70869 5.32111 4.80993 5.26935 4.92036 5.2551L4.98241 5.25102H9.05501L10.6579 1.33685L1.49099 5.68852L10.6579 10.0402H10.6573Z" fill="white"/>
</svg>
