<svg width="13" height="12" viewBox="0 0 13 12" fill="none" xmlns="http://www.w3.org/2000/svg">
<path d="M2.63968 5.99996L0.55392 0.90746C0.408931 0.553377 0.772633 0.21446 1.13265 0.33521L1.18978 0.35796L12.2483 5.60796C12.3196 5.64178 12.3805 5.69258 12.4249 5.75541C12.4694 5.81824 12.4959 5.89094 12.5019 5.96641C12.5079 6.04188 12.4932 6.11754 12.4592 6.18599C12.4252 6.25445 12.373 6.31336 12.3079 6.35696L12.2483 6.39079L1.18978 11.6408C0.831611 11.8105 0.442106 11.4979 0.535489 11.1461L0.55392 11.0907L2.63968 5.99996L0.55392 0.90746L2.63968 5.99996ZM1.84592 1.64829L3.44941 5.56246H7.52078C7.63213 5.56247 7.7397 5.60075 7.82362 5.67024C7.90753 5.73973 7.96211 5.83572 7.97725 5.94046L7.98155 5.99996C7.98153 6.10577 7.94112 6.20799 7.86781 6.28768C7.7945 6.36737 7.69325 6.41913 7.58283 6.43338L7.52078 6.43746H3.44818L1.84531 10.3516L11.0122 5.99996L1.84531 1.64829H1.84592Z" fill="white"/>
</svg>
